<svg width="1600" height="1000" viewBox="0 0 1600 1000" fill="none" xmlns="http://www.w3.org/2000/svg">
  <defs>
    <linearGradient id="bg" x1="120" y1="80" x2="1520" y2="920" gradientUnits="userSpaceOnUse">
      <stop offset="0" stop-color="#0F1E37" />
      <stop offset="0.6" stop-color="#142B4D" />
      <stop offset="1" stop-color="#1E3A63" />
    </linearGradient>
    <linearGradient id="line" x1="430" y1="260" x2="1140" y2="760" gradientUnits="userSpaceOnUse">
      <stop offset="0" stop-color="#F59E0B" stop-opacity="0.95" />
      <stop offset="1" stop-color="#FDBA74" stop-opacity="0.7" />
    </linearGradient>
    <linearGradient id="panel" x1="280" y1="220" x2="1320" y2="860" gradientUnits="userSpaceOnUse">
      <stop offset="0" stop-color="#FFFFFF" stop-opacity="0.08" />
      <stop offset="1" stop-color="#FFFFFF" stop-opacity="0.03" />
    </linearGradient>
  </defs>

  <rect width="1600" height="1000" fill="url(#bg)" />
  <rect x="140" y="110" width="1320" height="780" rx="28" fill="url(#panel)" stroke="#FFFFFF" stroke-opacity="0.16" />

  <rect x="240" y="220" width="320" height="170" rx="18" fill="#0B172B" stroke="#FFFFFF" stroke-opacity="0.2" />
  <rect x="640" y="180" width="320" height="170" rx="18" fill="#0B172B" stroke="#FFFFFF" stroke-opacity="0.2" />
  <rect x="1040" y="220" width="320" height="170" rx="18" fill="#0B172B" stroke="#FFFFFF" stroke-opacity="0.2" />

  <rect x="240" y="610" width="320" height="170" rx="18" fill="#0B172B" stroke="#FFFFFF" stroke-opacity="0.2" />
  <rect x="640" y="650" width="320" height="170" rx="18" fill="#0B172B" stroke="#FFFFFF" stroke-opacity="0.2" />
  <rect x="1040" y="610" width="320" height="170" rx="18" fill="#0B172B" stroke="#FFFFFF" stroke-opacity="0.2" />

  <path d="M560 305H640" stroke="url(#line)" stroke-width="4" />
  <path d="M960 305H1040" stroke="url(#line)" stroke-width="4" />
  <path d="M400 390V610" stroke="url(#line)" stroke-width="4" />
  <path d="M800 350V650" stroke="url(#line)" stroke-width="4" />
  <path d="M1200 390V610" stroke="url(#line)" stroke-width="4" />
  <path d="M560 695H640" stroke="url(#line)" stroke-width="4" />
  <path d="M960 695H1040" stroke="url(#line)" stroke-width="4" />

  <circle cx="560" cy="305" r="10" fill="#FCD34D" />
  <circle cx="640" cy="305" r="10" fill="#FCD34D" />
  <circle cx="960" cy="305" r="10" fill="#FCD34D" />
  <circle cx="1040" cy="305" r="10" fill="#FCD34D" />
  <circle cx="400" cy="390" r="10" fill="#FCD34D" />
  <circle cx="400" cy="610" r="10" fill="#FCD34D" />
  <circle cx="800" cy="350" r="10" fill="#FCD34D" />
  <circle cx="800" cy="650" r="10" fill="#FCD34D" />
  <circle cx="1200" cy="390" r="10" fill="#FCD34D" />
  <circle cx="1200" cy="610" r="10" fill="#FCD34D" />
  <circle cx="560" cy="695" r="10" fill="#FCD34D" />
  <circle cx="640" cy="695" r="10" fill="#FCD34D" />
  <circle cx="960" cy="695" r="10" fill="#FCD34D" />
  <circle cx="1040" cy="695" r="10" fill="#FCD34D" />

  <rect x="276" y="258" width="120" height="16" rx="8" fill="#FFFFFF" fill-opacity="0.72" />
  <rect x="276" y="286" width="180" height="12" rx="6" fill="#FFFFFF" fill-opacity="0.4" />
  <rect x="276" y="307" width="210" height="12" rx="6" fill="#FFFFFF" fill-opacity="0.26" />

  <rect x="676" y="218" width="140" height="16" rx="8" fill="#FFFFFF" fill-opacity="0.72" />
  <rect x="676" y="246" width="228" height="12" rx="6" fill="#FFFFFF" fill-opacity="0.4" />
  <rect x="676" y="267" width="190" height="12" rx="6" fill="#FFFFFF" fill-opacity="0.26" />

  <rect x="1076" y="258" width="116" height="16" rx="8" fill="#FFFFFF" fill-opacity="0.72" />
  <rect x="1076" y="286" width="228" height="12" rx="6" fill="#FFFFFF" fill-opacity="0.4" />
  <rect x="1076" y="307" width="196" height="12" rx="6" fill="#FFFFFF" fill-opacity="0.26" />

  <rect x="276" y="648" width="130" height="16" rx="8" fill="#FFFFFF" fill-opacity="0.72" />
  <rect x="276" y="676" width="220" height="12" rx="6" fill="#FFFFFF" fill-opacity="0.4" />
  <rect x="276" y="697" width="196" height="12" rx="6" fill="#FFFFFF" fill-opacity="0.26" />

  <rect x="676" y="688" width="120" height="16" rx="8" fill="#FFFFFF" fill-opacity="0.72" />
  <rect x="676" y="716" width="224" height="12" rx="6" fill="#FFFFFF" fill-opacity="0.4" />
  <rect x="676" y="737" width="202" height="12" rx="6" fill="#FFFFFF" fill-opacity="0.26" />

  <rect x="1076" y="648" width="144" height="16" rx="8" fill="#FFFFFF" fill-opacity="0.72" />
  <rect x="1076" y="676" width="220" height="12" rx="6" fill="#FFFFFF" fill-opacity="0.4" />
  <rect x="1076" y="697" width="192" height="12" rx="6" fill="#FFFFFF" fill-opacity="0.26" />
</svg>
